<?xml version="1.0" standalone="no"?>
<!DOCTYPE svg PUBLIC "-//W3C//DTD SVG 20010904//EN"
 "http://www.w3.org/TR/2001/REC-SVG-20010904/DTD/svg10.dtd">
<svg version="1.0" xmlns="http://www.w3.org/2000/svg"
 width="700.000000pt" height="700.000000pt" viewBox="0 0 700.000000 700.000000"
 preserveAspectRatio="xMidYMid meet">
<metadata>
Created by potrace 1.11, written by Peter Selinger 2001-2013
</metadata>
<g transform="translate(0.000000,700.000000) scale(0.100000,-0.100000)"
fill="#000000" stroke="none">
<path d="M4049 6268 c-90 -11 -203 -70 -315 -163 -26 -22 -103 -86 -170 -142
-332 -277 -472 -348 -622 -316 -94 19 -129 23 -214 23 -135 1 -194 -23 -293
-115 -22 -21 -60 -56 -85 -79 -25 -24 -70 -59 -100 -79 -30 -20 -59 -41 -65
-45 -32 -26 -213 -89 -280 -98 -16 -3 -40 -7 -52 -9 -33 -8 -178 -15 -388 -20
-104 -2 -214 -9 -243 -14 -58 -12 -132 -49 -176 -89 -34 -32 -98 -128 -152
-229 -22 -40 -54 -98 -71 -130 -18 -32 -40 -71 -48 -88 -16 -33 -32 -59 -114
-191 -29 -47 -59 -94 -67 -103 -7 -9 -26 -33 -42 -53 -23 -29 -148 -167 -232
-257 -8 -9 -41 -51 -72 -94 -90 -123 -128 -247 -122 -395 5 -123 14 -156 104
-392 47 -124 183 -509 225 -640 38 -118 157 -398 191 -448 74 -112 221 -231
390 -316 178 -90 284 -107 436 -72 178 41 309 141 311 238 1 44 4 42 43 -32
50 -94 109 -134 252 -170 265 -66 315 -74 442 -74 93 0 127 3 240 23 224 39
358 115 457 261 56 83 59 136 12 262 -16 46 -26 79 -21 73 4 -5 24 -30 42 -55
64 -86 119 -129 239 -187 113 -54 119 -56 211 -59 52 -2 114 1 138 5 23 5 42
5 42 2 0 -4 -25 -31 -55 -59 -30 -29 -55 -56 -55 -61 0 -5 -30 -19 -67 -31
-213 -70 -224 -86 -218 -325 2 -93 7 -192 10 -219 13 -99 79 -146 320 -228 91
-31 146 -56 180 -83 109 -83 123 -85 625 -74 201 4 296 -7 435 -51 234 -73
302 -90 430 -105 65 -7 169 -7 220 0 44 7 174 44 190 55 6 4 52 22 104 41 145
52 184 101 206 254 17 110 28 165 51 232 18 53 24 67 87 203 48 103 81 175
132 286 43 94 85 158 182 279 129 160 151 221 148 396 -4 191 -30 314 -89 422
-73 136 -85 160 -92 197 -11 57 -5 154 17 289 16 94 21 173 21 312 1 180 0
188 -25 240 -14 30 -34 63 -44 74 -10 11 -36 43 -58 70 -22 27 -47 57 -55 65
-8 9 -35 40 -60 70 -25 30 -55 66 -67 80 -15 16 -21 33 -18 50 9 48 19 185 19
265 0 128 -6 162 -70 420 -4 17 -9 39 -11 50 -15 82 -57 203 -101 294 -42 86
-188 210 -301 256 -106 43 -224 58 -332 40 -144 -23 -471 -23 -509 0 -3 2 -17
6 -31 8 -89 17 -253 121 -364 232 -40 40 -181 170 -205 190 -28 23 -92 55
-110 55 -7 0 -37 16 -68 35 -67 41 -126 54 -203 43z m-2 -24 c-3 -3 -12 -4
-19 -1 -8 3 -5 6 6 6 11 1 17 -2 13 -5z m116 -1 c-7 -2 -19 -2 -25 0 -7 3 -2
5 12 5 14 0 19 -2 13 -5z m42 -13 c3 -6 -1 -7 -9 -4 -18 7 -21 14 -7 14 6 0
13 -4 16 -10z m91 -57 c-4 -4 -76 37 -76 44 0 2 18 -6 40 -18 22 -12 38 -24
36 -26z m67 -19 c18 -9 43 -26 57 -36 36 -28 141 -128 133 -128 -3 0 -37 30
-76 66 -38 36 -93 77 -121 90 -28 13 -45 24 -38 24 7 0 27 -7 45 -16z m287
-250 c28 -31 24 -29 -20 10 -74 66 -80 73 -45 48 17 -11 46 -37 65 -58z m163
-126 c40 -27 68 -48 64 -48 -18 0 -187 119 -187 132 0 4 12 -2 26 -15 14 -12
57 -43 97 -69z m107 -58 c8 -5 11 -10 5 -10 -5 0 -17 5 -25 10 -8 5 -10 10 -5
10 6 0 17 -5 25 -10z m80 -30 c8 -5 11 -10 5 -10 -5 0 -17 5 -25 10 -8 5 -10
10 -5 10 6 0 17 -5 25 -10z m737 -6 c-3 -3 -12 -4 -19 -1 -8 3 -5 6 6 6 11 1
17 -2 13 -5z m-654 -11 c-7 -2 -19 -2 -25 0 -7 3 -2 5 12 5 14 0 19 -2 13 -5z
m53 -11 c-10 -2 -22 0 -28 6 -6 6 0 7 19 4 21 -5 23 -7 9 -10z m289 8 c-3 -5
-18 -9 -33 -9 l-27 1 30 8 c17 4 31 8 33 9 2 0 0 -3 -3 -9z m52 4 c-3 -3 -12
-4 -19 -1 -8 3 -5 6 6 6 11 1 17 -2 13 -5z m344 -9 c19 -8 29 -14 23 -15 -7 0
-27 7 -45 15 -19 8 -29 14 -23 15 7 0 27 -7 45 -15z m-584 -1 c-3 -3 -12 -4
-19 -1 -8 3 -5 6 6 6 11 1 17 -2 13 -5z m96 -1 c-7 -2 -19 -2 -25 0 -7 3 -2 5
12 5 14 0 19 -2 13 -5z m576 -35 c23 -12 56 -35 74 -50 25 -23 21 -21 -19 7
-28 19 -55 35 -60 35 -10 1 -51 30 -42 30 3 0 25 -10 47 -22z m232 -210 c11
-21 17 -38 14 -38 -2 0 -12 14 -21 32 -9 17 -39 57 -67 87 l-51 56 53 -50 c29
-27 61 -67 72 -87z m52 -118 c3 -11 1 -18 -4 -14 -5 3 -9 12 -9 20 0 20 7 17
13 -6z m14 -52 c-3 -8 -6 -5 -6 6 -1 11 2 17 5 13 3 -3 4 -12 1 -19z m87 -332
c8 -32 11 -55 7 -50 -7 8 -31 92 -31 110 0 18 9 -6 24 -60z m-2804 -66 c0 -5
-6 -10 -14 -10 -13 0 -71 -67 -139 -160 -10 -14 -15 -18 -11 -10 12 25 77 113
113 153 34 37 51 46 51 27z m2829 -45 c0 -5 -4 -3 -9 5 -5 8 -9 22 -9 30 0 16
17 -16 18 -35z m4 -35 c3 -11 2 -22 -2 -24 -4 -3 -8 6 -9 20 -2 29 4 31 11 4z
m-3038 -10 c3 -5 -1 -10 -10 -10 -9 0 -13 5 -10 10 3 6 8 10 10 10 2 0 7 -4
10 -10z m3042 -97 c-3 -10 -5 -2 -5 17 0 19 2 27 5 18 2 -10 2 -26 0 -35z
m-10 -165 c-3 -7 -5 -2 -5 12 0 14 2 19 5 13 2 -7 2 -19 0 -25z m-10 -100 c-3
-7 -5 -2 -5 12 0 14 2 19 5 13 2 -7 2 -19 0 -25z m-10 -80 c-3 -8 -6 -5 -6 6
-1 11 2 17 5 13 3 -3 4 -12 1 -19z m-10 -65 c-3 -10 -5 -4 -5 12 0 17 2 24 5
18 2 -7 2 -21 0 -30z m94 -10 c13 -16 12 -17 -3 -4 -10 7 -18 15 -18 17 0 8 8
3 21 -13z m-108 -64 c-6 -6 -7 3 -4 23 4 28 6 29 9 9 2 -13 0 -27 -5 -32z
m148 14 c13 -16 12 -17 -3 -4 -10 7 -18 15 -18 17 0 8 8 3 21 -13z m-161 -97
c-6 -31 -14 -56 -17 -56 -2 0 -2 14 1 30 3 17 9 44 12 61 3 17 8 28 11 26 3
-3 0 -31 -7 -61z m225 24 c10 -11 16 -20 13 -20 -3 0 -13 9 -23 20 -10 11 -16
20 -13 20 3 0 13 -9 23 -20z m-244 -126 c-9 -28 -9 -29 -10 -3 -1 14 2 29 6
32 11 12 13 2 4 -29z m-21 -91 c-11 -17 -11 -17 -6 0 3 10 7 26 7 35 1 15 2
15 6 0 2 -10 -1 -25 -7 -35z m-3 -100 c-2 -16 -4 -3 -4 27 0 30 2 43 4 28 2
-16 2 -40 0 -55z m-1 -92 c-1 -31 -8 -33 -12 -4 -3 16 3 33 10 33 2 0 3 -13 2
-29z m4 -103 c0 -51 -5 -47 -13 10 -3 24 -1 40 4 36 5 -3 9 -24 9 -46z m-4
-210 c-3 -78 -9 -144 -12 -147 -4 -3 -4 32 0 79 3 47 6 113 6 148 0 34 3 62 6
62 4 0 4 -64 0 -142z m-6 -168 c0 -5 -5 -10 -11 -10 -5 0 -7 5 -4 10 3 6 8 10
11 10 2 0 4 -4 4 -10z m-13 -67 c-3 -10 -5 -2 -5 17 0 19 2 27 5 18 2 -10 2
-26 0 -35z m-10 -85 c-3 -7 -5 -2 -5 12 0 14 2 19 5 13 2 -7 2 -19 0 -25z
m-14 -109 c-5 -5 -6 11 -3 34 4 41 5 41 8 8 2 -18 0 -37 -5 -42z m-3154 -224
c0 -5 -6 1 -14 15 -8 14 -14 30 -14 35 0 6 6 -1 14 -15 8 -14 14 -29 14 -35z
m3718 3 c-3 -8 -6 -5 -6 6 -1 11 2 17 5 13 3 -3 4 -12 1 -19z m-3703 -34 c3
-8 2 -12 -4 -9 -6 3 -10 10 -10 16 0 14 7 11 14 -7z m3732 -97 c13 -117 5
-276 -17 -307 -7 -11 -8 -5 -2 20 10 43 11 262 1 345 -4 38 -4 50 2 32 5 -15
12 -56 16 -90z m-3696 18 c0 -5 -5 -3 -10 5 -5 8 -10 20 -10 25 0 6 5 3 10 -5
5 -8 10 -19 10 -25z m50 -105 c11 -22 18 -40 15 -40 -2 0 -14 18 -25 40 -11
22 -18 40 -15 40 2 0 14 -18 25 -40z m1497 -62 c-3 -8 -6 -5 -6 6 -1 11 2 17
5 13 3 -3 4 -12 1 -19z m-1399 -105 c90 -146 133 -185 280 -256 l125 -61 101
0 c56 1 115 4 131 8 25 6 28 5 17 -6 -20 -20 -230 -22 -279 -2 -226 93 -310
168 -422 379 -38 72 -29 60 47 -62z m1369 -5 c-3 -8 -6 -5 -6 6 -1 11 2 17 5
13 3 -3 4 -12 1 -19z m2143 -88 c-6 -11 -13 -20 -16 -20 -2 0 0 9 6 20 6 11
13 20 16 20 2 0 0 -9 -6 -20z m-27 -45 c-3 -9 -8 -14 -10 -11 -3 3 -2 9 2 15
9 16 15 13 8 -4z m-133 -169 c0 -2 -8 -10 -17 -17 -16 -13 -17 -12 -4 4 13 16
21 21 21 13z m-3375 -65 c-52 -83 -155 -170 -240 -203 -49 -19 -216 -55 -305
-64 -122 -14 -230 -7 -385 25 -268 55 -361 94 -397 166 -6 12 3 6 22 -13 45
-47 138 -89 240 -108 14 -3 41 -9 60 -14 19 -5 51 -12 70 -15 19 -4 69 -13
110 -20 138 -25 416 0 567 51 90 31 210 129 260 215 9 16 19 27 21 25 2 -2 -8
-23 -23 -45z m3309 -26 c-9 -14 -18 -25 -21 -25 -5 0 5 18 20 38 17 22 18 13
1 -13z m-45 -77 c-11 -24 -27 -60 -36 -81 -8 -21 -17 -36 -20 -34 -5 5 64 157
71 157 3 0 -4 -19 -15 -42z m-759 -158 c116 -78 296 -319 415 -554 44 -87 47
-96 38 -132 l-10 -39 0 41 c3 121 -332 611 -463 679 -17 9 -30 23 -30 33 0 10
3 13 8 7 4 -6 23 -22 42 -35z m686 -7 c-8 -15 -15 -25 -16 -21 0 12 23 58 27
54 3 -2 -2 -17 -11 -33z m-43 -88 c-9 -19 -18 -33 -21 -31 -4 5 26 66 33 66 3
0 -3 -16 -12 -35z m-30 -62 c-7 -20 -33 -60 -33 -52 0 9 31 69 35 69 3 0 2 -8
-2 -17z m-48 -99 c-8 -20 -15 -39 -15 -42 0 -3 -2 -3 -5 0 -6 5 22 78 30 78 3
0 -2 -16 -10 -36z m-50 -126 c-22 -61 -42 -161 -37 -181 1 -5 -1 -6 -6 -3 -9
5 0 83 14 129 16 51 46 128 50 125 1 -2 -8 -34 -21 -70z m-232 -100 c63 -101
124 -221 133 -263 3 -16 -19 20 -49 81 -57 115 -126 227 -171 278 -14 16 -26
34 -26 39 0 21 61 -52 113 -135z"/>
</g>
</svg>
