<svg enable-background="new 0 0 216 216" viewBox="0 0 216 216" xmlns="http://www.w3.org/2000/svg"><path d="m122 152.4c.2 0 .4-.1.5-.1-.2.1-.4.1-.5.1z" fill="#7023f0"/><path d="m168.9 191.2c-4.5-.5-7.6-1.5-10.6-2.5-3.4-1.1-6.6-2.2-11.3-2.4-3.5-.1-6.9.1-9.8.2-4.4.3-8.3.5-10.7-.5-3.9-1.6-9.9-7.7-9.9-12.2 0-1.1-.1-2.5-.2-4-.3-4.5-.8-10.7 1.4-12.4.6-.5 2-1.8 3.8-3.8 3.5-.8 7.1-1.9 10.4-2.9.8-.2 1.6-.5 2.4-.7 7-2.1 7.4-3 8.1-6.2.1-.5.2-1 .3-1.5l1.2-4.9c1.3.9 4.6 3.2 6.8 4.5 2.3 1.4 6.6 1.5 12 1.7 1.6 0 3.3.1 5.1.2 7.4.3 10.7-2.4 15.2-6.2l.3-.2c4.5-3.8 6.8-7.4 7.6-11.9.6-3.9 1.4-10 1.4-17 0-1.5 0-2.8 0-3.8-.1-3.7-.1-5.6.7-10.1.3-1.5.5-3 .8-4.4.4-2.3.9-4.5 1.2-7 1.1 1.4 3.3 4 6.3 7.5.3.4.6.7.9 1.1.2.2.4.5.5.7.4.5.7.9.9 1.3.1.1.1.3.2.4 0 .1.1.2.1.3v.1c.1.2.1.4.2.5v.2.2c0 .2.1.4.1.5v.6 1.1.7c0 1-.1 2.3 0 4 .2 3.3-.3 6.1-.8 8.9-.4 2.5-.8 4.9-.7 7.3.2 2.7 1.3 4.5 2.4 6.3 1 1.6 2 3.3 2.5 5.7.6 2.8 2.2 12.2-.6 16.1-.7 1-1.6 2.1-2.6 3.3-2.4 2.9-5.1 6.1-6.6 10.2-1 2.6-1.9 4.4-2.9 6.3-1.1 2.1-2.2 4.3-3.5 7.8-.9 2.4-1.2 4.6-1.5 6.6v.1c-2.4-5.3-9.9-17.4-15-19.6-.3-.1-.6 0-.7.3v.2c0 .2.1.4.3.5 5.5 2.4 14.2 17.3 15.1 20.7-.1.4-.1.7-.2 1.1 0 .2-.1.3-.1.5s-.1.3-.2.5c-1.2-3.1-5-10-7.3-12-.2-.2-.5-.2-.7 0-.1.1-.1.2-.1.3s.1.3.2.4c2.3 1.9 6.5 9.7 7.3 12.4-.1.1-.2.2-.3.4 0 0-.1.1-.1.2l-.1.1s0 0-.1 0c0 .1-.1.1-.2.2s-.2.1-.3.2c-.1 0-.1.1-.2.1s-.1 0-.1.1c-.2.1-.4.2-.5.3s-.2.1-.3.1c-.2.1-.3.1-.5.2-1.5.5-2.7 1-4 1.5-3.1 1-6.1 2.3-13 1.5z" fill="#7023f0"/><path d="m190.2 182.7c-.9-3.4-9.6-18.3-15.1-20.7-.2-.1-.3-.3-.3-.5 0-.1 0-.1 0-.2.1-.3.4-.4.7-.3 5.1 2.2 12.6 14.3 15 19.6-.1.8-.2 1.5-.3 2.1z" fill="#7023f0"/><path d="m189.6 184.7c-.2.4-.4.8-.6 1.2-.8-2.7-5.1-10.5-7.3-12.4-.1-.1-.2-.2-.2-.4 0-.1 0-.2.1-.3.2-.2.5-.2.7 0 2.3 1.9 6.1 8.7 7.3 11.9z" fill="#7023f0"/><path d="m143 137.3c-.4-1.2-.6-3.2-.7-5.6.3-.3.6-.6 1-1 0 2 .1 3.7.4 5l-.2-.1z" fill="#7023f0"/><path d="m191.5 98.6s0-.1 0-.2v-.1c0-.1 0-.1 0-.2v.1.6z" fill="#7023f0"/><path d="m191.5 99.4v.2z" fill="#7023f0"/><path d="m191.4 101.3c-.1 0-.1 0-.1-.1-1-1-2.4-1.5-3.7-1.7-.1 0-.2-.1-.3-.2l.4-.8c1.4.1 2.7.6 3.8 1.5 0-.1 0-.2 0-.3v-.1s0 0 0-.1c-.1.7-.1 1.2-.1 1.8z" fill="#7023f0"/><path d="m188.6 103.3c-.8-.3-1.2-.5-3-.4l.5-1c1.6 0 2.1.2 2.9.5.5.2 1.1.5 2.2.8.1 0 .1 0 .2.1v.8c-.1.1-.3.2-.4.1-1.2-.4-1.9-.7-2.4-.9z" fill="#7023f0"/><path d="m193.9 84.6c0 .1 0 .2-.1.4.1-.1.1-.2.1-.4z" fill="#7023f0"/><path d="m193.7 85.9c.1-.3.1-.6.2-.9v.2.2c-.2.2-.2.3-.2.5z" fill="#7023f0"/><path d="m191.5 107.8c-2-.7-4.1-1-6.2-1-.3 0-.5-.2-.5-.5s.2-.5.5-.5c2.1 0 4.2.4 6.2 1-.1.3-.1.6 0 1z" fill="#7023f0"/><path d="m53.4 148.6c-.8-2-1.6-3.5-1.7-3.7l-.9.4c.1.2.7 1.7 1.7 3.7 1.1 2.8 2 6.1 1.3 7.8-1.9 4-10.9 6.8-16.4 5.1-3.9-1.2-9.8-4.3-13.9-8.2 0-.1 0-.2 0-.2 0-.1-2.8-8.1-2.9-14.2 0-3.4.1-7.2.2-11.2.1-3.5.2-7.1.2-10.6 0-7.3-1-13.4-1.1-13.5 0-.3-.3-.5-.6-.4-.2 0-.4.2-.4.5v.1c0 .1 1 6 1 13.3 0 3.5-.1 7.1-.2 10.6-.1 4-.2 7.8-.2 11.2.1 4.6 1.6 10.1 2.4 12.8-1.1-1.3-2-2.6-2.6-4-2.9-6.8-4.3-10.3-7.4-20-1.4-4.4-2.9-8.3-4.1-11.4-.8-2-1.4-3.7-2-5.2.6 0 1.6.2 2.5.5.6.1 1.1.2 1.4.3.3 0 .5-.1.6-.4 0-.3-.2-.5-.4-.6-.3 0-.8-.2-1.3-.3-1-.2-2.2-.5-2.9-.5h-.1c-.3-1.1-.6-2-.6-2.7-.1-.9-.2-2.1-.2-3.4 0-2.9.6-6.7 3.3-10.4 2.5-3.4 4.5-5.5 6.3-7.4s3.5-3.7 5.3-6.3c3.4-5.1 6.5-10.9 9.3-16.1l.3-.5c2.8-5.3 4.9-7.8 11.5-8.2 1.7-.1 3.6-.1 5.5-.1 5.8 0 12.3 0 18.2-2.4 4.9-2 8-5 10.6-7.4 1.5-1.4 2.7-2.6 3.9-3.1 3.1-1.4 8.4-1 12 0s8.8-1.3 15.6-6.8c1.6-1.3 3.1-2.6 4.5-3.8 3.5-2.9 6.3-5.3 8.8-6.7 3.2-1.9 7.6-3.1 10.7-.7 1.2.9 1.9 1.1 2.6 1.3.1 0 .2 0 .2.1.2.1.5.1.7.2.1 0 .2.1.4.2.1.1.3.1.4.2.3.2.6.4 1 .6.7.5 1.5 1.2 2.5 2.1.2.2.5.4.7.7.4.4.8.8 1.2 1.2 7.6 7.6 12 10.3 21.1 10.3 4.5 0 7.1-.3 9.2-.6 2.2-.3 3.8-.5 6.2-.1 4.9.7 9.4 4 11.6 6.9 2.4 3 3.8 8.5 4.8 13.5.2 1 .4 1.9.6 2.8.7 2.8 1.3 5.2 1.3 8.8 0 1.1-.1 2.3-.2 3.7-.1.8-.2 1.6-.2 2.3-.1.7-.2 1.4-.3 2.1 0 .1 0 .2-.1.4-.1.5-.1 1-.2 1.4-.1.5-.1.9-.2 1.3v.2.2c0 .1 0 .2-.1.4-.1.3-.1.6-.2.9-.2 1.3-.5 2.5-.7 3.8-.3 1.4-.5 2.8-.8 4.4-.1.6-.2 1.2-.3 1.8v.2c0 .2-.1.4-.1.6v.3c0 .1 0 .2-.1.3v.1.3.4.2.1.2.2.2.4.1.1.1.1.3c-1.1-.8-2.4-1.4-3.8-1.5-.3 0-.5.2-.5.5 0 .1 0 .2.1.3s.2.2.3.2c1.4.1 2.7.7 3.7 1.7 0 0 .1.1.1.1v2c-.1 0-.1-.1-.2-.1-1.1-.3-1.7-.5-2.2-.8-.8-.3-1.3-.6-2.9-.5-.2 0-.3 0-.5 0h-.1c-.3 0-.5.2-.5.5 0 .1.1.2.2.3s.2.1.4.1h.1c1.8-.1 2.2.1 3 .4.5.2 1.2.5 2.4.8.2 0 .3 0 .4-.1v.4 2.3c-2-.6-4.1-1-6.2-1-.3 0-.5.2-.5.5s.2.5.5.5c2.1 0 4.2.4 6.2 1v.5c0 6.9-.8 13-1.4 16.8-.7 4.3-2.9 7.6-7.2 11.3l-.3.2c-.2.2-.4.3-.6.5-.6.5-1.1.9-1.7 1.4-.5.4-1.1.8-1.6 1.2-.2.1-.4.2-.5.4-2.7 1.8-5.6 2.8-10.1 2.6-1.8-.1-3.5-.1-5.1-.2-5.1-.1-9.5-.2-11.5-1.5-2.8-1.7-7.3-4.9-7.4-4.9l-.4-.3c-.2-1.2-.3-3-.4-5 0-.2 0-.5 0-.7v-.7c0-6.3.8-14.9 1.6-21.4 1.5-.2 2.5-.2 4-.1.3 0 .5-.2.5-.4 0-.3-.2-.5-.4-.6-1.5-.2-2.5-.1-4 .1 0-.3.1-.7.1-1 .7-5.5 3-12 5.2-18.3 1-3 2-5.8 2.8-8.3.3-1.1.8-2.2 1.3-3.1.2-.4.4-.8.7-1.1.5-1 1-2.3 1.4-3.5-.3.3-.6.7-.9 1-.4 1.1-.9 2.2-1.4 3.1l.8-2.3c-.3.3-.5.7-.8 1.1-.8 1.3-1.6 2.8-2.1 4.5-.8 2.6-1.8 5.4-2.8 8.3-2.2 6.4-4.6 12.9-5.3 18.5-.6 4.6-1.8 15.9-1.8 23.9v.5.7.7c.1 2.4.3 4.4.7 5.6l-1.2 4.6c-.2.6-.3 1.1-.4 1.6-.6 2.8-.7 3.4-7.4 5.5-.8.2-1.6.5-2.4.7-.9.3-1.8.6-2.7.8-.7.2-1.4.4-2.1.6-.5.1-1 .3-1.5.4-.2 0-.4.1-.6.2-.3.1-.7.2-1 .3s-.6.2-.9.2c-.1 0-.2 0-.3.1-.2.1-.4.1-.5.1-.3.1-.6.1-.9.2-.4.1-.7.2-1.1.2-.3.1-.6.1-1 .2-.3.1-.6.1-.9.1-.3.1-.6.1-.9.1s-.6.1-.9.1c-.9.1-1.8.1-2.7 0-.3 0-.6 0-.9-.1-.2 0-.4 0-.6-.1-.1 0-.1 0-.2 0-.4-.1-.7-.2-1-.3s-.7-.3-1-.4c-1.3-.7-2.3-1.2-3.1-1.5-2.6-1.2-3.6-1.7-6.7-6-1.6-2.3-3.2-5.3-4.6-8-.2-.5-.4-1-.6-1.5-.8-1.9-1.6-3.6-2.2-4.8-.1-.2-.2-.4-.2-.5-.1-.2-.2-.5-.3-.7s-.2-.3-.2-.5c0-.1-.1-.1-.1-.2-1-4.1-.1-7.3.9-11 .9-3 1.9-6.4 2-10.9.2-5.9 1.6-10.6 2.9-15.2 1-3.3 1.9-6.4 2.3-9.8 1-7.8 7.5-14.4 7.6-14.5.2-.2.2-.5 0-.7s-.5-.2-.7 0-2.7 2.8-4.9 6.7c0-1.9-.3-3.4-.6-3.8-.1-.1-.3-.2-.4-.2-.3 0-.5.2-.5.5 0 .2.1.3.2.4.2.4.7 2.6.2 5.4v.2c-.8 1.8-1.4 3.8-1.7 5.9-.4 3.3-1.3 6.4-2.3 9.6-1.4 4.6-2.8 9.4-3 15.4-.1 4.4-1.1 7.7-1.9 10.6-.8 2.6-1.5 5-1.5 7.7 0 1.2.2 2.5.5 4v.1.1s.1.1.1.2.1.2.1.3.1.2.2.3c.2.5.5 1.2.9 2l.3.6c.6 1.3 1.3 2.8 2.1 4.5 2.4 5.5 5.1 12.2 5.1 14.6 0 2.1-4.6 8.1-9.6 9.4-4.7 1.2-11.7 2.8-18 1.3-1-.2-2.1-.4-3.1-.6-5-1-9.4-1.9-11.1-4.4-1.2-1.3-3.2-5.4-4.6-8.4z" fill="#7023f0"/><path d="m185.1 102.8c-.1-.1-.1-.2-.2-.3 0-.3.2-.5.5-.5h.1z" fill="#7023f0"/><path d="m90.9 129.2c-.4-1.4-.5-2.7-.5-4 0-2.6.7-5 1.5-7.7.8-2.9 1.8-6.3 1.9-10.6.2-6 1.6-10.8 3-15.4 1-3.2 1.9-6.3 2.3-9.6.3-2.1.9-4.1 1.7-5.9 0-.1 0-.1 0-.2.6-2.8 0-5-.2-5.4-.1-.1-.2-.2-.2-.4 0-.3.2-.5.5-.5.2 0 .3.1.4.2.3.4.7 1.9.6 3.8 2.2-3.9 4.8-6.5 4.9-6.7.2-.2.5-.2.7 0s.2.5 0 .7c-.1.1-6.6 6.7-7.6 14.5-.4 3.4-1.4 6.5-2.3 9.8-1.3 4.5-2.7 9.2-2.9 15.2-.1 4.5-1.1 7.9-2 10.9-1.1 3.7-2 6.9-.9 11v-.1z" fill="#7023f0"/><path d="m91 129.4c0-.1 0-.1-.1-.1 0 0 .1 0 .1.1z" fill="#7023f0"/><path d="m142.3 131c0-.2 0-.5 0-.7v-.5c0-8 1.2-19.3 1.8-23.9.7-5.6 3-12.1 5.3-18.5 1-3 2-5.7 2.8-8.3.5-1.7 1.2-3.2 2.1-4.5.2-.4.5-.7.8-1.1l-.8 2.3c.5-.9 1-2 1.4-3.1.3-.4.6-.7.9-1-.4 1.2-.9 2.4-1.4 3.5-.2.3-.5.7-.7 1.1-.5 1-1 2-1.3 3.1-.8 2.6-1.8 5.4-2.8 8.3-2.2 6.3-4.5 12.8-5.2 18.3 0 .3-.1.7-.1 1 1.5-.2 2.5-.2 4-.1.3 0 .5.3.4.6 0 .3-.3.5-.5.4-1.5-.2-2.5-.1-4 .1-.8 6.4-1.5 15-1.6 21.4v.7c-.4.3-.8.6-1.1.9z" fill="#7023f0"/><path d="m191.6 98.2s0 .1 0 0c0 0 0 0 0-.1z" fill="#7023f0"/><path d="m187.6 98.5-.4.8c-.1-.1-.1-.2-.1-.3 0-.3.2-.5.5-.5z" fill="#7023f0"/><path d="m185.6 102.9h-.1c-.1 0-.3 0-.4-.1l.4-.9h.5z" fill="#7023f0"/><path d="m182 137.1c.2-.2.4-.3.6-.5l.3-.2-.3.2c-.2.2-.4.3-.6.5z" fill="#7023f0"/><path d="m178.7 139.6c.5-.4 1.1-.8 1.6-1.2-.5.5-1 .9-1.6 1.2z" fill="#7023f0"/><path d="m142.3 131.7c0-.2 0-.5 0-.7.3-.3.7-.6 1-1v.7c-.3.3-.6.7-1 1z" fill="#7023f0"/><path d="m122.8 152.2c.3-.1.6-.2.9-.2l-.9.2c.1 0 .1 0 0 0z" fill="#7023f0"/><path d="m60.8 91.8v1.6c0-.5 0-1 0-1.6z" fill="#fff"/><path d="m59.1 101.5c-.2-.1-.4-.1-.4-.2-.2-.1-.3-.3-.3-.5 0-.1 0-.1 0-.2.1-.3.4-.4.7-.3.1 0 .2.1.3.1 0 .1 0 .2-.1.2-.1.4-.1.6-.2.9z" fill="#fff"/><path d="m91.1 129.6c-.1-.1-.1-.1-.1-.2v-.1c0 .1 0 .2.1.3z" fill="#fff"/><path d="m154.2 75.8.8-2.3c.2-.3.4-.5.6-.7-.4 1-.9 2.1-1.4 3z" fill="#fff"/><path d="m209.1 130.1c-.5-2.6-1.6-4.3-2.6-6-1.1-1.8-2.1-3.4-2.3-5.9-.2-2.3.2-4.6.6-7.1.5-2.8 1-5.7.8-9.1-.1-1.7 0-2.9 0-3.9.1-3 .2-4.3-3.3-8.3-3.7-4.3-6.1-7.3-6.9-8.2.2-1.5.4-3.1.6-4.9.6-6-.2-9.3-1.1-12.9-.2-.9-.4-1.8-.7-2.8-1.1-5.4-2.5-10.7-5-13.9-2.2-2.8-6.8-6.4-12.3-7.2-2.6-.4-4.3-.2-6.5.1-2.1.3-4.6.6-9 .6-8.8 0-12.8-2.5-20.4-10-4.9-4.9-6.3-5.3-7.6-5.6-.7-.2-1.2-.3-2.2-1.1-3.4-2.7-8.4-1.4-11.8.7-2.5 1.5-5.3 3.9-8.9 6.9-1.4 1.2-2.9 2.4-4.5 3.8-6.4 5.2-11.5 7.5-14.7 6.6-3.9-1.1-9.3-1.5-12.7 0-1.3.6-2.5 1.8-4.1 3.3-2.5 2.4-5.6 5.3-10.3 7.2-5.7 2.3-12.1 2.3-17.8 2.3-2 0-3.8 0-5.6.1-7.4.4-9.6 3.5-12.4 8.7l-.3.5c-2.7 5.1-5.8 10.9-9.2 16-1.7 2.6-3.3 4.3-5.2 6.2-1.8 1.9-3.9 4-6.4 7.5-2.9 3.9-3.5 7.9-3.5 10.9 0 1.4.1 2.6.2 3.5.2 2 1.3 5 3 9.2 1.2 3.1 2.7 7 4.1 11.3 3.1 9.7 4.5 13.2 7.4 20.1 2.8 6.8 12.6 12.5 18.6 14.4s15.5-1.2 17.6-5.7c.4-.8.5-1.9.3-3.1.8 1.6 1.6 3 2.2 4 1.9 2.8 6.4 3.8 11.7 4.8 1 .2 2 .4 3 .7 6.6 1.5 13.7-.1 18.5-1.4 5.2-1.4 10.4-7.6 10.4-10.4 0-1.4-.9-4.2-2.1-7.3.2.3.5.7.7 1 3.2 4.6 4.5 5.2 7.1 6.4.8.4 1.8.8 3.1 1.5 2.5 1.3 6.3 1.2 10.4.5-1.3 1.3-2.2 2.3-2.7 2.6-1.7 1.3-2.1 4.3-2.1 7.5 0 1.9.2 3.9.3 5.8.1 1.5.2 2.9.2 4 0 5 6.4 11.4 10.5 13.1 2.7 1.1 6.6.9 11.2.6 2.9-.2 6.3-.4 9.7-.2 4.5.2 7.7 1.2 11 2.3 3.1 1 6.2 2.1 10.8 2.6 7.2.8 10.4-.6 13.9-2.1 1.2-.5 2.4-1 3.9-1.5 4-1.2 4.4-4.4 4.9-8 .3-1.9.6-4.1 1.4-6.4 1.3-3.5 2.4-5.6 3.4-7.7 1-1.9 1.9-3.7 2.9-6.4 1.5-3.9 4.1-7.1 6.4-9.9 1-1.2 1.9-2.3 2.6-3.4 3-4.3 1.4-14 .8-16.9zm-90.1 22.9c-.3.1-.6.1-.9.2-.3 0-.6.1-.9.1s-.6.1-.9.1c-.9.1-1.8.1-2.7 0-.3 0-.6 0-.9-.1-.2 0-.4 0-.6-.1-.1 0-.1 0-.2 0-.3-.1-.7-.2-1-.3s-.7-.3-1-.4c-1.3-.7-2.3-1.2-3.1-1.5-2.6-1.2-3.6-1.7-6.7-6-1.6-2.3-3.2-5.3-4.6-8-.2-.5-.4-1-.6-1.5-.8-1.9-1.6-3.6-2.2-4.8-.1-.2-.2-.4-.2-.5-.1-.2-.2-.5-.3-.7s-.2-.3-.2-.5c0-.1-.1-.1-.1-.2-1-4.1-.1-7.3.9-11 .9-3 1.9-6.4 2-10.9.2-5.9 1.6-10.6 2.9-15.2 1-3.3 1.9-6.4 2.3-9.8 1-7.8 7.5-14.4 7.6-14.5.2-.2.2-.5 0-.7s-.5-.2-.7 0-2.7 2.8-4.9 6.7c0-1.9-.3-3.4-.6-3.8-.1-.1-.3-.2-.4-.2-.3 0-.5.2-.5.5 0 .2.1.3.2.4.2.4.7 2.6.2 5.4v.2c-.8 1.8-1.4 3.8-1.7 5.9-.4 3.3-1.3 6.4-2.3 9.6-1.4 4.6-2.8 9.4-3 15.4-.1 4.4-1.1 7.7-1.9 10.6-.8 2.6-1.5 5-1.5 7.7 0 1.2.2 2.5.5 4v.1.1s.1.1.1.2.1.2.1.3.1.2.2.3c.2.5.5 1.2.9 2l.3.6c.6 1.3 1.3 2.8 2.1 4.5 2.4 5.5 5.1 12.2 5.1 14.6 0 2.1-4.6 8.1-9.6 9.4-4.7 1.2-11.7 2.8-18 1.3-1-.2-2.1-.4-3.1-.6-5-1-9.4-2-11.1-4.4-1.2-1.8-3.2-5.9-4.6-8.9-.6-1.6-1.3-2.9-1.6-3.5-.9-4-.2-6.6.7-9.6.4-1.4.8-2.8 1.1-4.6.3-1.5.6-3.2.9-5 1.3-7.5 2.9-16.9 4.6-24.4-.2-.1-.3-.1-.4-.2-.2-.1-.3-.3-.3-.5 0-.1 0-.1 0-.2.1-.2.4-.4.7-.3.1 0 .2.1.3.1.1-.5.2-.9.3-1.4.7.1 1.4.4 2.1.6.8.3 1.7.6 2.6.7.3 0 .5-.1.6-.4 0-.3-.1-.5-.4-.6-.8-.1-1.6-.4-2.4-.7-.7-.2-1.4-.5-2.2-.6.4-1.6.9-3.1 1.3-4.5v-.1c2-6.1 4.2-10.5 4.3-10.6.1-.2 0-.5-.2-.7-.2-.1-.6 0-.7.2 0 0-1.6 3.3-3.3 8 0-2.5.1-4.4.1-4.4 0-.3-.2-.5-.5-.5s-.5.2-.5.5c0 0-.1 3.5-.1 7.3-.7 2.2-1.4 4.7-2 7.2-1.7 7.7-3.4 17.4-4.8 25.2-.3 1.8-.6 3.5-.9 5-.3 1.7-.7 3.1-1.1 4.5-.6 2.1-1.2 4-1.2 6.4 0 1.1.1 2.4.5 3.8.1.1.7 1.7 1.7 3.6 1.1 2.8 2 6.1 1.3 7.8-1.9 4-10.9 6.8-16.4 5.1-3.9-1.2-9.8-4.3-13.9-8.2 0-.1 0-.1 0-.2s-2.8-8.1-2.9-14.2c0-3.4.1-7.2.2-11.2.1-3.5.2-7.1.2-10.6 0-7.3-1-13.4-1.1-13.5 0-.3-.3-.5-.6-.4-.2 0-.4.2-.4.5v.1s1 6 1 13.3c0 3.5-.1 7.1-.2 10.6-.1 4-.2 7.8-.2 11.2.1 4.6 1.6 10.1 2.4 12.8-1.1-1.3-2-2.6-2.6-4-2.9-6.8-4.3-10.3-7.4-20-1.4-4.4-2.9-8.3-4.1-11.4-.8-2-1.4-3.7-2-5.2.6 0 1.6.2 2.5.5.6.1 1.1.2 1.4.3.3 0 .5-.1.6-.4 0-.3-.2-.5-.4-.6-.3 0-.8-.2-1.3-.3-1-.2-2.2-.5-2.9-.5h-.1c-.3-1.1-.6-2-.6-2.7-.1-.9-.2-2-.2-3.4 0-2.9.6-6.7 3.3-10.4 2.5-3.4 4.5-5.5 6.3-7.4s3.5-3.6 5.3-6.3c3.4-5.1 6.5-10.9 9.3-16.1l.3-.5c2.8-5.3 4.9-7.8 11.5-8.2 1.7-.1 3.6-.1 5.5-.1 5.8 0 12.3 0 18.2-2.4 4.9-2 8-5 10.6-7.4 1.5-1.4 2.7-2.6 3.9-3.1 3.1-1.4 8.4-1 12 0s8.8-1.3 15.6-6.8c1.6-1.3 3.1-2.6 4.5-3.8 3.5-2.9 6.3-5.3 8.8-6.8 3.2-1.9 7.6-3.1 10.7-.7 1.2.9 1.9 1.1 2.6 1.3.1 0 .2 0 .2.1.2.1.5.1.7.2.1.1.2.1.4.2.1.1.3.1.4.2.3.2.6.4 1 .6.7.5 1.5 1.2 2.5 2.1.2.2.5.5.7.7.4.4.8.8 1.2 1.2 7.6 7.6 12 10.3 21.1 10.3 4.5 0 7.1-.3 9.2-.6 2.2-.3 3.8-.5 6.2-.1 4.9.7 9.4 4 11.6 6.8 2.4 3 3.8 8.5 4.8 13.5.2 1 .4 1.9.7 2.8.7 2.8 1.3 5.2 1.3 8.8 0 1.1-.1 2.4-.2 3.7-.1.8-.2 1.6-.2 2.3-.1.7-.2 1.4-.3 2.1 0 .1 0 .2-.1.4-.1.5-.1 1-.2 1.4-.1.5-.1.9-.2 1.4v.2.2c0 .1 0 .2-.1.3v.2.2c0 .2-.1.3-.1.5-.2 1.3-.5 2.5-.7 3.8-.3 1.4-.5 2.8-.8 4.4-.1.6-.2 1.2-.3 1.8 0 .2-.1.5-.1.7v.3c0 .2 0 .3-.1.5v.3.4.1.1.1.1.2.2.4.1.1.1.3c-1.1-.8-2.4-1.4-3.8-1.5-.3 0-.5.2-.5.5 0 .1 0 .2.1.3s.2.1.3.2c1.4.1 2.7.7 3.7 1.7 0 0 .1.1.1.1v2c-.1 0-.1-.1-.2-.1-1.1-.3-1.7-.5-2.2-.8-.8-.3-1.3-.6-2.9-.5-.2 0-.3 0-.5 0h-.1c-.3 0-.5.2-.5.5 0 .1.1.2.2.3s.2.2.4.1h.1c1.8-.1 2.2.1 3 .4.5.2 1.2.5 2.4.8.2 0 .3 0 .4-.1v.4 2.3c-2-.6-4.1-1-6.2-1-.3 0-.5.2-.5.5s.2.5.5.5c2.1 0 4.2.4 6.2 1v.5c0 6.9-.8 13-1.4 16.8-.7 4.2-2.9 7.6-7.2 11.3l-.3.2c-.2.2-.4.3-.6.5-.6.5-1.1.9-1.7 1.4-.5.4-1.1.8-1.6 1.2-.2.1-.4.2-.5.4-2.7 1.8-5.6 2.8-10.1 2.6-1.8-.1-3.5-.1-5.1-.2-5.1-.1-9.5-.2-11.5-1.5-2.8-1.7-7.3-4.9-7.4-4.9l-.4-.3c-.2-1.2-.3-3-.4-5 0-.2 0-.5 0-.7v-.7c0-6.3.8-14.9 1.6-21.3 1.5-.2 2.5-.2 4-.1.3 0 .5-.2.5-.4 0-.3-.2-.5-.4-.5-1.5-.2-2.5-.1-4 0 0-.3.1-.7.1-1 .7-5.5 3-12 5.2-18.3 1-3 2-5.8 2.8-8.4.3-1.1.8-2.2 1.3-3.1.2-.4.4-.8.7-1.1 3.1-4.8 7.9-7 7.9-7.1.2-.1.4-.4.2-.7-.1-.2-.4-.4-.7-.2-.2.1-3.2 1.5-6.1 4.5.7-2 1.2-3.9 1.1-4.3 0-.1-.2-.3-.3-.3-.3-.1-.5 0-.6.3v.3c-.1.6-1.1 4.2-2.4 6.9-.8 1.3-1.6 2.8-2.1 4.5-.8 2.6-1.8 5.4-2.8 8.3-2.2 6.4-4.6 12.9-5.3 18.5-.6 4.7-1.8 15.9-1.8 23.9v.5.7.7c.1 2.4.3 4.4.7 5.6l-1.2 4.6c-.2.6-.3 1.1-.4 1.6-.6 2.8-.7 3.4-7.4 5.5-.8.2-1.6.5-2.4.7-.9.3-1.8.6-2.7.8-.7.2-1.4.4-2.1.6-.5.1-1 .3-1.5.4-.2 0-.4.1-.6.2-.3.1-.7.2-1 .3s-.6.1-.9.2c-.1 0-.2 0-.3.1-.2 0-.4.1-.5.1-.3.1-.6.1-.9.2-.4.1-.7.1-1.1.2-.6 1-.9 1.1-1.3 1.1zm88.5-6.6c-.7 1-1.6 2.1-2.6 3.3-2.4 2.9-5.1 6.2-6.6 10.2-1 2.6-1.9 4.4-2.9 6.3-1.1 2.1-2.2 4.3-3.5 7.8-.9 2.4-1.2 4.6-1.5 6.6v.1c-2.4-5.3-9.9-17.4-15-19.6-.3-.1-.5 0-.7.3v.2c0 .2.1.4.3.5 5.5 2.4 14.2 17.3 15.1 20.7-.1.4-.1.7-.2 1 0 .2-.1.3-.1.5s-.1.3-.2.5c-1.2-3.1-5-10-7.3-12-.2-.2-.5-.2-.7 0-.1.1-.1.2-.1.3s.1.3.2.4c2.3 1.9 6.5 9.7 7.3 12.4-.1.1-.2.2-.3.3 0 0-.1.1-.1.2l-.1.1s-.1.1-.2.2-.2.1-.3.2c-.1 0-.1.1-.2.1s-.1 0-.1.1c-.2.1-.4.2-.5.3-.1 0-.2.1-.3.1-.2.1-.3.1-.5.2-1.5.5-2.7 1-4 1.5-3.5 1.5-6.5 2.8-13.4 2-4.5-.5-7.6-1.5-10.6-2.5-3.4-1.1-6.6-2.2-11.3-2.4-3.5-.1-6.9 0-9.8.2-4.4.3-8.3.5-10.7-.5-3.9-1.6-9.9-7.7-9.9-12.2 0-1.1-.1-2.5-.2-4-.3-4.5-.8-10.7 1.4-12.4.6-.5 2-1.8 3.8-3.8 3.5-.8 7.1-1.9 10.4-2.9.8-.2 1.6-.5 2.4-.7 7-2.1 7.4-3 8.1-6.2.1-.5.2-1 .3-1.5l1.2-4.9c1.3.9 4.6 3.2 6.8 4.5 2.3 1.4 6.6 1.5 12 1.7 1.6 0 3.3.1 5.1.2 7.4.3 10.7-2.4 15.2-6.2l.3-.2c4.5-3.9 6.8-7.4 7.6-11.9.6-3.9 1.4-10 1.4-17 0-1.5 0-2.8 0-3.8-.1-3.7-.1-5.6.7-10.2.3-1.5.5-3 .8-4.4.4-2.3.9-4.5 1.2-7 1.1 1.4 3.3 4 6.3 7.5.3.4.6.7.9 1.1.2.2.4.5.5.7.4.5.7.9.9 1.3.1.1.1.3.2.4 0 .1.1.2.1.3v.1c.1.2.1.4.2.5v.2.2c0 .2.1.4.1.5v.6 1.1.7c0 1-.1 2.3 0 4 .2 3.3-.3 6.1-.8 8.9-.4 2.5-.8 4.9-.7 7.3.2 2.7 1.3 4.5 2.4 6.3 1 1.6 2 3.3 2.5 5.7.9 2.6 2.5 11.9-.3 15.9z" fill="#fff"/><path d="m154.5 76.2c.2-.4.4-.8.7-1.1-.2.3-.3.6-.5.9-.1.1-.1.2-.2.2z" fill="#fff"/><path d="m79.7 46.8c0-.1.1-.3.2-.4 1.3-1 3.1-1.5 4.7-1.2.3 0 .5.3.4.6 0 .3-.3.5-.6.4-1.4-.2-2.8.2-3.9 1-.2.2-.5.1-.7-.1-.1-.1-.1-.2-.1-.3z" fill="#fff"/><path d="m59.1 101.5c-.2-.1-.4-.1-.4-.2-.2-.1-.3-.3-.3-.5 0-.1 0-.1 0-.2.1-.3.4-.4.7-.3.1 0 .2.1.3.1 0 .1 0 .2-.1.2-.1.4-.1.6-.2.9z" fill="#fff"/><path d="m38.5 160.3c0-.2.2-.5.4-.5.5-.1.9-.1 1.4-.2.4-.1.9-.1 1.3-.2 3.2-.5 6.4-1.6 9.3-3.1.2-.1.5 0 .7.2.1.2 0 .5-.2.7-3 1.6-5.3 2.8-9.6 3.2-.4 0-.9.1-1.3.2s-.9.1-1.3.2-.7-.1-.7-.5z" fill="#fff"/><path d="m40 156.7c0-.3.2-.5.5-.5 3.3-.1 6.7-1 9.6-2.6.2-.1.5 0 .7.2.1.2 0 .5-.2.7-3.1 1.7-6.5 2.6-10 2.7-.4 0-.6-.2-.6-.5z" fill="#fff"/><path d="m115.9 159s3.1-2 10.4-1.2 11.1.4 13.8 4.6 6.1 9.6 3.1 13c-3.1 3.4-1.5 6.9-9.2 6.9s-9.2 2.3-14.6.4-10.7-3.4-11-6.5c-.4-3.1-.6-9.6-.4-12.6s7.9-4.6 7.9-4.6z" fill="#37dca9"/><path d="m107.4 166.7c0-1.2 0-2.3.1-3.1.2-3.2 7.1-4.8 8.2-5.1.6-.3 3.9-2 10.7-1.2 1.1.1 2.1.2 3.1.3 5.4.5 8.7.8 11.1 4.6 2.8 4.5 6.3 10 3 13.7-.9 1-1.3 1.9-1.8 2.9-1.1 2.3-2.1 4.2-7.8 4.2-3.1 0-5.1.4-6.9.7-2.5.5-4.5.8-7.8-.4-.6-.2-1.2-.4-1.8-.6-4.9-1.7-9.2-3.2-9.6-6.3-.3-2.3-.5-6.5-.5-9.7zm36.4 5.4c0-2.9-2.2-6.4-4.1-9.4-2.2-3.4-5.1-3.7-10.3-4.1-1-.1-2-.2-3.1-.3-7-.7-10 1.1-10.1 1.1l-.2.1c-2.8.6-7.4 2.2-7.5 4.1-.2 3.1 0 9.5.4 12.5.3 2.4 4.5 3.8 8.9 5.4l1.8.6c3 1.1 4.7.8 7.3.3 1.8-.3 3.9-.7 7.1-.7 5.1 0 5.8-1.4 6.8-3.6.5-.9 1-2 2-3.1.7-.8 1-1.8 1-2.9z" fill="#f7f8f9"/><g fill="#fff"><path d="m172 44.7c0-.2.2-.4.4-.5 5.4-1.2 11.4 1.6 14.1 6.4.1.2 0 .5-.2.7-.2.1-.5 0-.7-.2-2.5-4.4-8.1-7-13-5.9-.3.1-.5-.1-.6-.4z"/><path d="m33.1 61.1c.6 0 .6-1 0-1s-.6 1 0 1z"/><path d="m34.1 60c.6 0 .6-1 0-1s-.6 1 0 1z"/><path d="m35.6 60.5c.6 0 .6-1 0-1s-.6 1 0 1z"/><path d="m34.8 61.6c.6 0 .6-1 0-1s-.6 1 0 1z"/><path d="m32.8 62.6c.6 0 .6-1 0-1s-.6 1 0 1z"/><path d="m31.5 63.3c.6 0 .6-1 0-1-.7 0-.7 1 0 1z"/><path d="m30.6 65c.6 0 .6-1 0-1s-.6 1 0 1z"/><path d="m29.5 66.5c.6 0 .6-1 0-1-.7 0-.7 1 0 1z"/><path d="m30.8 66.5c.6 0 .6-1 0-1s-.6 1 0 1z"/><path d="m35.3 59.5c.6 0 .6-1 0-1s-.6 1 0 1z"/><path d="m37.1 58.8c.6 0 .6-1 0-1s-.6 1 0 1z"/><path d="m38.6 58c.6 0 .6-1 0-1s-.6 1 0 1z"/><path d="m37.6 60.1c.6 0 .6-1 0-1s-.6 1 0 1z"/><path d="m40.1 59.5c.6 0 .6-1 0-1s-.6 1 0 1z"/><path d="m43 57.1c.6 0 .6-1 0-1-.7 0-.7 1 0 1z"/><path d="m40.8 57.8c.6 0 .6-1 0-1s-.6 1 0 1z"/><path d="m39.1 60.8c.6 0 .6-1 0-1s-.6 1 0 1z"/><path d="m8 113.8c.6 0 .6-1 0-1-.7 0-.7 1 0 1z"/><path d="m9 117c.6 0 .6-1 0-1-.7 0-.7 1 0 1z"/><path d="m8.5 115.5c.6 0 .6-1 0-1-.7 0-.7 1 0 1z"/><path d="m9.6 115.3c.6 0 .6-1 0-1s-.6 1 0 1z"/><path d="m10.6 114.5c.6 0 .6-1 0-1s-.6 1 0 1z"/><path d="m10.6 116.6c.6 0 .6-1 0-1s-.6 1 0 1z"/><path d="m9.8 118.1c.6 0 .6-1 0-1s-.6 1 0 1z"/><path d="m10 119.6c.6 0 .6-1 0-1-.7 0-.7 1 0 1z"/><path d="m10.6 121.1c.6 0 .6-1 0-1s-.6 1 0 1z"/><path d="m28.8 68c.6 0 .6-1 0-1s-.6 1 0 1z"/><path d="m30.8 68.5c.6 0 .6-1 0-1s-.6 1 0 1z"/><path d="m28.3 69.7c.6 0 .6-1 0-1s-.6 1 0 1z"/><path d="m27.1 71.2c.6 0 .6-1 0-1-.7 0-.7 1 0 1z"/><path d="m26.1 73.2c.6 0 .6-1 0-1-.7 0-.7 1 0 1z"/><path d="m29.1 71c.6 0 .6-1 0-1-.7 0-.7 1 0 1z"/><path d="m42.8 59.5c.6 0 .6-1 0-1s-.6 1 0 1z"/><path d="m44.8 58.7c.6 0 .6-1 0-1s-.6 1 0 1z"/><path d="m42.3 60.7c.6 0 .6-1 0-1s-.6 1 0 1z"/><path d="m40.8 61.5c.6 0 .6-1 0-1s-.6 1 0 1z"/><path d="m43.3 63c.6 0 .6-1 0-1s-.6 1 0 1z"/><path d="m44.8 61c.6 0 .6-1 0-1s-.6 1 0 1z"/><path d="m44.8 62.5c.6 0 .6-1 0-1s-.6 1 0 1z"/><path d="m46.6 60.2c.6 0 .6-1 0-1-.7 0-.7 1 0 1z"/><path d="m46.8 58.7c.6 0 .6-1 0-1s-.6 1 0 1z"/><path d="m45.6 57c.6 0 .6-1 0-1-.7 0-.7 1 0 1z"/><path d="m48.3 58c.6 0 .6-1 0-1s-.6 1 0 1z"/><path d="m92.5 156c.6 0 .6-1 0-1s-.6 1 0 1z"/><path d="m92.4 158.1c.6 0 .6-1 0-1s-.6 1 0 1z"/><path d="m96 155.4c.6 0 .6-1 0-1s-.6 1 0 1z"/><path d="m85.9 160.4c.6 0 .6-1 0-1s-.6 1 0 1z"/><path d="m95 156.6c.6 0 .6-1 0-1s-.6 1 0 1z"/><path d="m90.2 159.5c.6 0 .6-1 0-1s-.6 1 0 1z"/><path d="m117.3 151.9c.6 0 .6-1 0-1-.6.1-.6 1 0 1z"/><path d="m115.8 152.6c.6 0 .6-1 0-1-.7 0-.7 1 0 1z"/><path d="m112 151.6c.6 0 .6-1 0-1-.7 0-.7 1 0 1z"/><path d="m106.4 149c.6 0 .6-1 0-1s-.6 1 0 1z"/><path d="m82.4 159c.6 0 .6-1 0-1-.7 0-.7 1 0 1z"/><path d="m84.6 158.6c.6 0 .6-1 0-1s-.7 1 0 1z"/><path d="m108.5 149.8c.6 0 .6-1 0-1s-.6 1 0 1z"/><path d="m109.8 150.7c.6 0 .6-1 0-1-.7 0-.7 1 0 1z"/><path d="m96.7 152.3c.6 0 .6-1 0-1s-.6 1 0 1z"/><path d="m113.4 151.5c.6 0 .6-1 0-1-.7 0-.7 1 0 1z"/><path d="m103.9 146.9c.6 0 .6-1 0-1s-.6 1 0 1z"/><path d="m87.6 160.2c.6 0 .6-1 0-1s-.6 1 0 1z"/><path d="m83.9 161c.6 0 .6-1 0-1s-.6 1 0 1z"/><path d="m74.1 161.5c.6 0 .6-1 0-1-.7.1-.7 1 0 1z"/><path d="m81.1 161.6c.6 0 .6-1 0-1s-.6 1 0 1z"/><path d="m78.7 161.1c.6 0 .6-1 0-1s-.6 1 0 1z"/><path d="m79.8 158.9c.6 0 .6-1 0-1-.7.1-.7 1 0 1z"/><path d="m76.1 161.7c.6 0 .6-1 0-1s-.6 1 0 1z"/><path d="m111.8 39.5c.6 0 .6-1 0-1-.7.1-.7 1 0 1z"/><path d="m111.1 37.6c.6 0 .6-1 0-1-.7 0-.7 1 0 1z"/><path d="m112.7 37.7c.6 0 .6-1 0-1s-.6 1 0 1z"/><path d="m112.6 35.5c.6 0 .6-1 0-1-.7 0-.7 1 0 1z"/><path d="m114.9 36.1c.6 0 .6-1 0-1-.6.1-.6 1 0 1z"/><path d="m116.1 34.9c.6 0 .6-1 0-1s-.6 1 0 1z"/><path d="m115.8 37.3c.6 0 .6-1 0-1-.7 0-.7 1 0 1z"/><path d="m118 35.9c.6 0 .6-1 0-1-.7 0-.7 1 0 1z"/><path d="m120 32.9c.6 0 .6-1 0-1s-.6 1 0 1z"/><path d="m118.1 34.1c.6 0 .6-1 0-1s-.6 1 0 1z"/><path d="m117.4 37.5c.6 0 .6-1 0-1s-.6 1 0 1z"/><path d="m120.5 35.1c.6 0 .6-1 0-1s-.6 1 0 1z"/><path d="m120.4 36.5c.6 0 .6-1 0-1s-.6 1 0 1z"/><path d="m126.5 29.2c.6 0 .6-1 0-1s-.6 1 0 1z"/><path d="m114.7 33.8c.6 0 .6-1 0-1s-.6 1 0 1z"/><path d="m117.8 31.6c.6 0 .6-1 0-1s-.6 1 0 1z"/><path d="m126.7 27.4c.6 0 .6-1 0-1s-.6 1 0 1z"/><path d="m120.2 30c.6 0 .6-1 0-1-.7 0-.7 1 0 1z"/><path d="m122.6 29.6c.6 0 .6-1 0-1s-.6 1 0 1z"/><path d="m122.4 31.9c.6 0 .6-1 0-1-.6.1-.6 1 0 1z"/><path d="m124.7 28c.6 0 .6-1 0-1s-.6 1 0 1z"/><path d="m202.6 127c.6 0 .6-1 0-1-.7 0-.7 1 0 1z"/><path d="m203.8 129c.6 0 .6-1 0-1s-.6 1 0 1z"/><path d="m202.1 129.2c.6 0 .6-1 0-1-.7 0-.7 1 0 1z"/><path d="m203.6 131.7c.6 0 .6-1 0-1-.7 0-.7 1 0 1z"/><path d="m205.1 131.2c.6 0 .6-1 0-1-.7 0-.7 1 0 1z"/><path d="m201.8 130.7c.6 0 .6-1 0-1s-.6 1 0 1z"/><path d="m205.1 133c.6 0 .6-1 0-1-.7 0-.7 1 0 1z"/><path d="m203.3 133.7c.6 0 .6-1 0-1s-.6 1 0 1z"/><path d="m205.1 135c.6 0 .6-1 0-1-.7 0-.7 1 0 1z"/><path d="m203.6 137.2c.6 0 .6-1 0-1-.7 0-.7 1 0 1z"/><path d="m201.8 135.5c.6 0 .6-1 0-1s-.6 1 0 1z"/><path d="m204.1 135.7c.6 0 .6-1 0-1-.7 0-.7 1 0 1z"/><path d="m205.6 137.5c.6 0 .6-1 0-1-.7 0-.7 1 0 1z"/><path d="m204.6 138.7c.6 0 .6-1 0-1-.7 0-.7 1 0 1z"/><path d="m205.8 140.7c.6 0 .6-1 0-1s-.6 1 0 1z"/><path d="m206.3 139.2c.6 0 .6-1 0-1s-.6 1 0 1z"/><path d="m204.1 140.7c.6 0 .6-1 0-1-.7 0-.7 1 0 1z"/><path d="m205.6 143.2c.6 0 .6-1 0-1-.7 0-.7 1 0 1z"/><path d="m204.8 145.7c.6 0 .6-1 0-1s-.6 1 0 1z"/><path d="m204.6 144c.6 0 .6-1 0-1-.7 0-.7 1 0 1z"/><path d="m203.6 146.5c.6 0 .6-1 0-1-.7 0-.7 1 0 1z"/><path d="m202.1 148c.6 0 .6-1 0-1-.7 0-.7 1 0 1z"/><path d="m201.6 97.2c.6 0 .6-1 0-1-.7 0-.7 1 0 1z"/><path d="m200.3 95.2c.6 0 .6-1 0-1s-.6 1 0 1z"/><path d="m201.6 96c.6 0 .6-1 0-1-.7 0-.7 1 0 1z"/><path d="m200.8 99.2c.6 0 .6-1 0-1s-.6 1 0 1z"/><path d="m199.8 96.5c.6 0 .6-1 0-1s-.6 1 0 1z"/><path d="m199.8 97.7c.6 0 .6-1 0-1s-.6 1 0 1z"/><path d="m190.8 58.7c.6 0 .6-1 0-1s-.6 1 0 1z"/><path d="m189.8 56.7c.6 0 .6-1 0-1s-.6 1 0 1z"/><path d="m189.8 59.7c.6 0 .6-1 0-1s-.6 1 0 1z"/><path d="m193.8 77.7c.6 0 .6-1 0-1s-.6 1 0 1z"/><path d="m190.8 64.7c.6 0 .6-1 0-1s-.6 1 0 1z"/><path d="m189.8 65.7c.6 0 .6-1 0-1s-.6 1 0 1z"/><path d="m190.8 66.7c.6 0 .6-1 0-1s-.6 1 0 1z"/><path d="m191.8 67.7c.6 0 .6-1 0-1s-.6 1 0 1z"/><path d="m191.8 70.7c.6 0 .6-1 0-1s-.6 1 0 1z"/><path d="m193.8 71.7c.6 0 .6-1 0-1s-.6 1 0 1z"/><path d="m193.8 73.7c.6 0 .6-1 0-1s-.6 1 0 1z"/><path d="m193.8 75.7c.6 0 .6-1 0-1s-.6 1 0 1z"/><path d="m192.8 74.7c.6 0 .6-1 0-1s-.6 1 0 1z"/><path d="m191.8 72.7c.6 0 .6-1 0-1s-.6 1 0 1z"/><path d="m193.8 69.7c.6 0 .6-1 0-1s-.6 1 0 1z"/><path d="m190.8 68.7c.6 0 .6-1 0-1s-.6 1 0 1z"/><path d="m190.8 60.7c.6 0 .6-1 0-1s-.6 1 0 1z"/><path d="m190.8 62.7c.6 0 .6-1 0-1s-.6 1 0 1z"/><path d="m189.8 63.7c.6 0 .6-1 0-1s-.6 1 0 1z"/><path d="m189.3 61.2c.6 0 .6-1 0-1s-.6 1 0 1z"/><path d="m192.3 64.2c.6 0 .6-1 0-1s-.6 1 0 1z"/><path d="m192.3 66.2c.6 0 .6-1 0-1s-.6 1 0 1z"/><path d="m193.3 68.2c.6 0 .6-1 0-1s-.6 1 0 1z"/><path d="m200.8 101.2c.6 0 .6-1 0-1s-.6 1 0 1z"/><path d="m199.8 100.5c.6 0 .6-1 0-1s-.6 1 0 1z"/><path d="m201.1 104.7c.6 0 .6-1 0-1-.7 0-.7 1 0 1z"/><path d="m199.1 95c.6 0 .6-1 0-1-.7 0-.7 1 0 1z"/><path d="m200.1 92.7c.6 0 .6-1 0-1-.7 0-.7 1 0 1z"/><path d="m5.8 109c.6 0 .6-1 0-1s-.6 1 0 1z"/><path d="m7.3 109.5c.6 0 .6-1 0-1s-.6 1 0 1z"/><path d="m9.6 109.7c.6 0 .6-1 0-1-.7 0-.7 1 0 1z"/><path d="m6.8 106.2c.6 0 .6-1 0-1s-.6 1 0 1z"/><path d="m9.3 106.7c.6 0 .6-1 0-1s-.6 1 0 1z"/><path d="m7.6 107.7c.6 0 .6-1 0-1-.7 0-.7 1 0 1z"/><path d="m8.3 110.7c.6 0 .6-1 0-1s-.6 1 0 1z"/><path d="m6.6 103.2c.6 0 .6-1 0-1-.7 0-.7 1 0 1z"/><path d="m7.8 101c.6 0 .6-1 0-1s-.6 1 0 1z"/><path d="m8.3 103.2c.6 0 .6-1 0-1s-.6 1 0 1z"/><path d="m9.6 104.5c.6 0 .6-1 0-1-.7 0-.7 1 0 1z"/><path d="m7.8 105.2c.6 0 .6-1 0-1s-.6 1 0 1z"/><path d="m6.3 101.5c.6 0 .6-1 0-1s-.6 1 0 1z"/><path d="m7.3 99c.6 0 .6-1 0-1s-.6 1 0 1z"/><path d="m8.3 98c.6 0 .6-1 0-1s-.6 1 0 1z"/><path d="m9.3 96c.6 0 .6-1 0-1s-.6 1 0 1z"/><path d="m10.3 94.7c.6 0 .6-1 0-1s-.6 1 0 1z"/><path d="m197.3 160.5c.6 0 .6-1 0-1s-.6 1 0 1z"/><path d="m195.8 162.2c.6 0 .6-1 0-1s-.6 1 0 1z"/><path d="m194.8 163v.2c0 .6 1 .6 1 0 0-.1 0-.2 0-.2 0-.7-1-.7-1 0z"/><path d="m195.1 165.7c.6 0 .6-1 0-1-.7 0-.7 1 0 1z"/><path d="m193.8 167.2c.6 0 .6-1 0-1s-.6 1 0 1z"/><path d="m192.6 167.7c.6 0 .6-1 0-1-.7 0-.7 1 0 1z"/><path d="m193.8 165.5c.6 0 .6-1 0-1s-.6 1 0 1z"/><path d="m194.6 160.5c.6 0 .6-1 0-1-.7 0-.7 1 0 1z"/><path d="m196.6 158.5c.6 0 .6-1 0-1-.7 0-.7 1 0 1z"/><path d="m198.3 157c.6 0 .6-1 0-1s-.6 1 0 1z"/><path d="m192.3 169.5c.6 0 .6-1 0-1s-.6 1 0 1z"/><path d="m192.1 170.7c.6 0 .6-1 0-1-.7 0-.7 1 0 1z"/><path d="m191.3 172.2c.6 0 .6-1 0-1s-.6 1 0 1z"/><path d="m178.1 189.2c.6 0 .6-1 0-1-.7 0-.7 1 0 1z"/><path d="m175.3 190c.6 0 .6-1 0-1s-.6 1 0 1z"/><path d="m171.6 189.2c.6 0 .6-1 0-1-.7 0-.7 1 0 1z"/><path d="m175.6 188.7c.6 0 .6-1 0-1-.7 0-.7 1 0 1z"/><path d="m173.1 187.5c.6 0 .6-1 0-1-.7 0-.7 1 0 1z"/><path d="m176.1 186.7c.6 0 .6-1 0-1-.7 0-.7 1 0 1z"/><path d="m173.3 189.2c.6 0 .6-1 0-1s-.6 1 0 1z"/><path d="m168.8 190.5c.6 0 .6-1 0-1s-.6 1 0 1z"/><path d="m172.3 191c.6 0 .6-1 0-1s-.6 1 0 1z"/><path d="m170.6 190.5c.6 0 .6-1 0-1-.7 0-.7 1 0 1z"/><path d="m137.5 171.1c-.5-.2-1 0-1.3.5-.5 1.2-2.3 2-3.4 1.2 1.1-.6 2.1-1.4 2.7-2.7s.1-4.1-2.5-3.7c-1.4.3-3.6 2.1-3.1 5.3-1.9.4-1.6-2.3-.7-6 .2-1.1.3-1.9-.4-2.5s-1.4-.1-2 .3c-1.3 1.1-2.8 3.1-3.6 4.2.4-2.1.9-4.7.5-5.4s-1.2-.7-1.9-.2c-1.6 1.3-4.3 5-4.4 5.2 0 0 .1-.5.2-.9 0-.5-.2-1-.8-1.1-.5-.1-1.2.2-1.3.7-.6 3.1-1.2 4.7-1.8 7.8-.1.5.2 1.2.7 1.3.3.1.6 0 .8-.1s.4-.4.4-.5c1.2-3 4-7 5.9-9.2 0 0 .1 0 .1.1-.2 1.3-.8 4.4-.9 4.9 0 .4 0 1 .6 1.2s1 .1 1.6-.4 2.9-3.4 3.7-4.3c.1-.1.2-.1.1.1-1.5 5 .3 7.9 4 6.9 2.5 2.9 6.2 1 7.1-1.3.3-.6.2-1.1-.3-1.4zm-4-2.7c.7.3.2 2-1.7 2.9-.1-1.7 1-3.2 1.7-2.9z"/></g></svg>