<svg version="1" xmlns="http://www.w3.org/2000/svg" width="2304" height="2304" viewBox="0 0 1728.000000 1728.000000" preserveAspectRatio="xMidYMid meet"><metadata>Created by potrace 1.11, written by Peter Selinger 2001-2013</metadata><path d="M6250 13328 c-105 -22 -167 -42 -248 -79 -35 -16 -65 -29 -67 -29 -9 0 -173 -102 -197 -122 -15 -13 -46 -39 -69 -58 -23 -19 -53 -45 -65 -57 -13 -13 -28 -23 -34 -23 -6 0 -8 -4 -5 -10 3 -5 2 -10 -3 -10 -5 0 -49 -39 -98 -86 -49 -47 -111 -107 -139 -134 -62 -60 -325 -330 -325 -334 0 -2 -17 -21 -37 -43 -63 -65 -196 -213 -283 -313 -45 -52 -102 -116 -126 -142 -24 -26 -44 -50 -44 -53 0 -3 -13 -19 -30 -35 -16 -16 -30 -32 -30 -35 0 -4 -12 -19 -27 -34 -16 -16 -75 -85 -132 -155 -58 -70 -113 -137 -124 -149 -10 -12 -31 -37 -45 -56 -15 -19 -32 -39 -37 -45 -6 -6 -28 -33 -50 -61 -22 -27 -48 -59 -58 -70 -10 -11 -41 -50 -70 -87 -28 -38 -55 -68 -59 -68 -4 0 -8 -7 -8 -15 0 -8 -4 -15 -8 -15 -5 0 -24 -21 -42 -47 -19 -27 -37 -50 -40 -53 -3 -3 -24 -30 -48 -60 -23 -30 -48 -62 -57 -71 -8 -9 -15 -21 -15 -27 0 -7 -3 -12 -8 -12 -4 0 -32 -33 -62 -72 -57 -75 -78 -102 -95 -122 -5 -6 -23 -29 -40 -51 -16 -22 -35 -47 -42 -55 -7 -8 -26 -33 -42 -55 -17 -22 -36 -47 -44 -55 -7 -8 -33 -42 -57 -75 -25 -33 -48 -61 -52 -63 -5 -2 -8 -8 -8 -13 0 -5 -6 -17 -14 -26 -75 -92 -106 -133 -106 -141 0 -6 -4 -12 -9 -14 -10 -3 -196 -251 -192 -256 1 -2 -9 -14 -23 -27 -14 -13 -26 -27 -26 -31 0 -3 -23 -35 -50 -70 -28 -35 -47 -64 -43 -64 5 0 2 -4 -4 -8 -7 -4 -28 -30 -48 -57 -41 -58 -42 -55 -14 62 12 48 23 96 25 106 2 10 5 26 8 35 3 9 7 33 10 52 3 19 7 44 10 55 4 23 14 85 21 135 3 19 8 53 11 75 9 54 12 345 4 345 -6 0 -11 18 -35 112 -7 30 -63 143 -82 165 -10 12 -25 31 -33 43 -21 31 -82 88 -127 118 -21 14 -39 29 -41 34 -2 4 -12 8 -23 8 -10 0 -19 4 -19 8 0 5 -19 15 -43 22 -23 8 -46 16 -52 19 -5 3 -14 6 -20 7 -5 1 -30 7 -55 14 -73 20 -189 26 -280 14 -30 -4 -63 -7 -72 -7 -10 -1 -18 -5 -18 -9 0 -4 -3 -7 -7 -6 -30 7 -263 -92 -263 -113 0 -5 -6 -9 -13 -9 -15 0 -122 -102 -154 -147 -63 -88 -93 -172 -139 -393 -9 -41 -18 -83 -20 -92 -2 -10 -6 -28 -9 -40 -2 -13 -8 -36 -11 -53 -4 -16 -8 -39 -10 -50 -1 -11 -3 -20 -4 -20 -1 0 -3 -9 -5 -19 -2 -11 -11 -51 -19 -90 -9 -39 -17 -80 -19 -91 -2 -11 -7 -31 -10 -45 -3 -14 -18 -79 -32 -145 -15 -66 -29 -127 -32 -135 -3 -8 -7 -27 -9 -42 -3 -24 -13 -69 -28 -128 -6 -20 -56 -240 -62 -265 -2 -11 -6 -29 -8 -40 -3 -15 -51 -214 -70 -290 -2 -5 -7 -28 -11 -50 -12 -55 -12 -55 -15 -57 -1 -2 -3 -10 -5 -18 -6 -29 -17 -85 -20 -100 -1 -8 -5 -22 -8 -30 -4 -13 -30 -115 -42 -170 -3 -15 -42 -168 -50 -202 -7 -24 -21 -84 -30 -118 -2 -8 -4 -15 -5 -15 -1 0 -3 -11 -5 -25 -2 -14 -18 -81 -35 -150 -18 -69 -34 -133 -36 -142 -2 -10 -6 -27 -9 -38 -3 -11 -7 -29 -10 -40 -3 -11 -7 -29 -10 -40 -3 -11 -7 -28 -9 -37 -2 -10 -23 -94 -46 -188 -23 -93 -43 -174 -44 -180 -1 -5 -5 -19 -9 -30 -3 -11 -8 -31 -11 -45 -7 -36 -10 -49 -51 -215 -46 -190 -48 -196 -49 -217 0 -10 -5 -18 -10 -18 -5 0 -7 -3 -3 -6 3 -3 0 -26 -8 -50 -7 -24 -11 -44 -9 -44 2 0 -1 -11 -6 -25 -5 -14 -12 -36 -14 -48 -5 -24 -45 -203 -52 -227 -14 -56 -24 -102 -28 -131 -3 -19 -10 -50 -16 -69 -6 -19 -13 -46 -16 -60 -2 -14 -7 -36 -10 -50 -19 -82 -23 -101 -30 -135 -3 -16 -7 -37 -8 -45 0 -8 -4 -17 -7 -20 -4 -3 -9 -23 -13 -45 -3 -22 -8 -51 -11 -65 -3 -14 -8 -34 -10 -45 -10 -49 -16 -77 -40 -185 -14 -63 -28 -128 -31 -145 -2 -16 -9 -46 -14 -65 -5 -19 -12 -48 -14 -65 -3 -16 -8 -40 -11 -53 -3 -12 -7 -32 -10 -45 -2 -12 -8 -35 -11 -52 -14 -60 -16 -82 -18 -178 -3 -104 13 -220 38 -280 8 -21 13 -37 11 -37 -10 0 62 -132 98 -180 108 -145 243 -229 427 -266 74 -15 329 -8 347 9 3 4 12 7 19 7 7 0 25 5 41 12 15 6 30 12 33 13 3 0 21 9 40 19 87 46 196 150 279 266 23 31 101 182 101 194 0 2 5 17 12 33 6 15 12 30 13 33 9 25 137 325 148 345 6 11 12 22 12 25 2 6 31 70 81 175 21 44 38 82 38 86 1 8 290 583 296 589 3 3 17 28 32 55 61 117 165 310 189 352 40 69 62 109 80 138 10 17 30 52 44 79 43 79 49 89 63 104 6 7 12 17 12 22 0 8 122 213 141 236 5 6 6 14 2 17 -3 4 -1 7 5 7 7 0 12 5 12 12 0 6 6 19 14 27 7 9 24 36 37 61 13 25 27 47 30 50 3 3 14 21 25 40 10 19 25 41 32 48 6 7 12 19 12 26 0 8 6 19 14 25 8 7 22 27 31 46 9 19 20 35 25 35 6 0 10 4 10 9 0 5 18 38 40 72 22 35 43 71 47 79 4 8 11 20 15 25 20 24 88 137 88 145 0 6 5 10 10 10 6 0 10 6 10 14 0 8 3 16 8 18 8 3 72 96 72 104 0 3 4 10 10 17 20 24 100 150 100 157 0 4 9 15 20 25 11 10 20 24 20 32 0 7 4 13 8 13 5 0 14 12 21 27 7 15 26 44 42 65 17 21 27 38 22 38 -4 0 -3 4 2 8 16 11 65 80 65 90 0 6 4 12 8 14 4 2 39 50 77 108 39 58 75 110 80 116 6 6 16 20 22 30 7 11 46 66 85 123 40 57 80 113 88 126 52 78 121 175 133 186 7 8 16 22 20 32 3 9 11 17 17 17 5 0 10 5 10 11 0 9 46 77 82 120 7 9 18 23 23 32 33 53 209 287 217 287 4 0 7 4 5 9 -1 5 9 22 23 37 14 16 37 48 53 70 15 22 35 49 45 60 9 11 33 42 52 69 19 28 39 55 45 60 6 6 24 28 40 50 16 22 34 45 40 51 5 7 19 24 30 40 11 15 28 36 37 46 10 10 15 18 12 18 -3 0 2 7 11 16 9 9 43 53 77 98 34 44 65 83 68 86 3 3 33 39 65 80 33 41 62 77 65 80 3 3 30 36 60 75 30 38 83 103 118 145 35 41 80 95 100 119 20 24 44 52 54 63 9 10 30 36 47 57 47 57 93 111 126 147 17 18 53 60 80 93 58 70 94 88 123 63 21 -20 33 -47 24 -57 -3 -3 -7 -16 -8 -28 -2 -20 -5 -35 -19 -107 -3 -14 -8 -38 -10 -55 -3 -16 -10 -53 -16 -81 -5 -28 -12 -61 -14 -75 -3 -13 -7 -35 -10 -49 -3 -14 -14 -74 -25 -135 -24 -130 -28 -151 -35 -187 -4 -15 -8 -39 -10 -55 -6 -35 -13 -68 -15 -68 -1 0 -3 -11 -5 -25 -1 -14 -12 -77 -24 -140 -13 -63 -24 -126 -26 -140 -2 -14 -7 -38 -11 -55 -4 -16 -8 -39 -9 -50 -2 -11 -4 -20 -5 -20 -1 0 -3 -11 -6 -25 -21 -122 -61 -333 -74 -395 -6 -27 -13 -63 -15 -80 -2 -16 -6 -41 -10 -55 -3 -14 -8 -36 -10 -50 -10 -65 -14 -88 -24 -130 -6 -25 -13 -63 -16 -85 -4 -42 -10 -72 -26 -142 -5 -24 -9 -46 -8 -50 1 -5 0 -11 -1 -15 -9 -28 -34 -172 -33 -190 0 -10 -2 -18 -6 -18 -3 0 -7 -10 -7 -22 -2 -27 -11 -83 -18 -115 -8 -39 -20 -118 -18 -125 1 -5 -1 -8 -6 -8 -4 0 -7 -10 -8 -22 -1 -22 -8 -73 -19 -128 -5 -23 -14 -86 -21 -135 -1 -11 -3 -20 -4 -20 -1 0 -4 -16 -6 -35 -10 -73 -12 -85 -14 -85 -1 0 -3 -18 -6 -40 -2 -22 -7 -53 -9 -70 -22 -126 -24 -455 -4 -455 3 0 5 -10 4 -22 -5 -41 53 -197 99 -267 46 -71 125 -147 198 -188 40 -23 205 -84 238 -88 8 -1 29 -5 45 -9 17 -3 47 -8 67 -10 20 -2 41 -6 46 -10 6 -3 13 -2 17 4 4 7 12 7 24 0 10 -5 20 -8 22 -6 4 4 126 18 162 20 9 0 17 3 17 6 0 4 6 7 13 8 11 0 44 8 72 16 48 14 195 85 242 117 23 16 44 29 47 29 5 0 58 38 116 83 14 11 82 66 134 107 53 43 280 278 404 419 13 14 43 46 66 71 23 25 87 97 141 160 55 63 104 120 110 126 5 6 28 32 50 58 22 27 49 58 60 70 46 52 83 95 130 151 27 33 52 62 55 65 3 3 28 32 55 65 28 33 55 65 60 71 19 21 94 110 201 239 60 72 113 135 119 141 5 7 21 26 35 44 14 17 34 42 45 54 11 13 36 43 55 66 19 24 43 51 53 61 9 11 17 23 17 28 0 5 4 11 9 13 7 2 70 75 179 210 7 7 22 26 36 41 13 15 39 47 58 69 18 23 70 87 116 142 46 56 98 119 115 140 18 22 40 48 50 58 9 10 17 20 17 23 0 2 12 18 28 34 15 16 32 36 37 43 17 22 99 123 105 128 6 6 54 64 95 115 104 129 143 158 172 129 23 -22 18 -62 -22 -199 -20 -66 -38 -131 -41 -144 -3 -13 -9 -32 -14 -41 -5 -10 -7 -20 -3 -23 3 -4 0 -13 -7 -22 -7 -8 -10 -15 -7 -15 3 0 -1 -24 -10 -52 -17 -64 -40 -156 -47 -189 -2 -13 -7 -31 -10 -39 -3 -8 -8 -26 -10 -40 -6 -30 -12 -58 -28 -130 -7 -30 -13 -59 -13 -65 -1 -5 -7 -35 -13 -65 -18 -80 -22 -101 -27 -144 -3 -21 -7 -41 -9 -45 -2 -3 -7 -27 -10 -51 -4 -25 -9 -58 -13 -75 -3 -16 -8 -41 -9 -55 -10 -90 -14 -120 -19 -151 -4 -19 -8 -54 -10 -79 -3 -25 -7 -63 -10 -85 -52 -401 -49 -943 6 -1305 5 -36 12 -76 14 -90 2 -14 7 -45 11 -70 5 -25 9 -49 9 -55 1 -5 4 -19 8 -30 3 -11 9 -36 12 -55 3 -19 17 -75 31 -125 14 -49 27 -97 29 -105 2 -8 8 -27 13 -41 6 -15 8 -30 5 -33 -4 -3 -2 -6 4 -6 5 0 10 -6 10 -12 2 -22 59 -169 102 -261 22 -48 40 -90 40 -94 0 -3 4 -9 9 -12 5 -3 19 -26 31 -51 24 -51 40 -78 59 -98 6 -7 12 -19 12 -27 0 -7 4 -15 8 -17 5 -1 28 -32 52 -68 24 -36 46 -67 50 -70 3 -3 24 -27 45 -55 115 -144 296 -301 475 -411 127 -78 395 -195 480 -209 28 -4 75 -17 100 -26 14 -5 41 -11 60 -14 19 -2 62 -9 95 -15 73 -13 101 -17 189 -24 37 -4 72 -9 77 -12 5 -3 9 -1 9 5 0 7 9 8 23 3 24 -9 180 -8 327 1 137 9 173 14 420 54 19 3 46 6 60 7 14 0 27 4 30 7 4 4 77 23 125 31 6 1 38 9 72 18 l61 17 41 -39 c23 -21 39 -38 37 -38 -5 0 107 -112 189 -188 37 -35 116 -101 174 -147 58 -46 114 -91 124 -100 9 -8 19 -15 22 -15 3 0 45 -26 93 -58 48 -32 116 -74 152 -93 35 -19 71 -40 78 -46 7 -7 18 -13 24 -13 6 0 40 -15 77 -33 36 -19 93 -44 126 -56 33 -13 69 -27 80 -31 30 -12 109 -38 123 -41 4 -1 23 -7 42 -15 40 -15 108 -33 148 -39 15 -2 54 -11 87 -19 33 -8 80 -17 105 -20 25 -3 59 -7 75 -10 115 -20 409 -26 560 -12 50 5 106 9 125 10 20 1 40 5 46 8 6 4 31 8 57 9 26 2 47 5 47 8 0 3 10 6 23 7 19 1 63 9 77 14 3 2 9 2 13 1 5 -1 43 8 85 20 43 11 85 22 95 24 58 12 375 127 425 154 30 17 187 87 196 88 5 1 12 6 15 11 3 5 33 24 66 41 108 58 147 81 227 136 44 30 82 55 85 55 2 0 10 6 18 13 7 6 25 21 41 32 15 11 33 26 41 33 7 7 13 10 13 5 0 -4 4 -3 8 2 6 9 101 90 140 120 52 40 242 225 242 236 0 5 7 9 15 9 8 0 15 3 15 8 0 7 18 28 111 130 21 24 39 46 39 48 0 5 69 94 81 104 3 3 38 55 77 115 40 61 77 115 82 122 6 7 10 15 10 18 0 3 11 23 25 45 14 22 22 40 18 40 -5 0 -3 4 3 8 15 10 126 246 127 270 0 6 5 12 10 12 6 0 8 3 4 6 -3 3 1 24 9 47 8 22 16 52 19 66 2 14 9 50 15 79 12 65 7 229 -10 297 -6 28 -21 69 -31 92 -10 24 -19 47 -19 53 0 5 -4 10 -10 10 -5 0 -10 6 -10 13 0 7 -9 23 -20 35 -11 12 -20 24 -20 27 0 6 -54 59 -94 93 -22 18 -116 72 -116 67 0 -3 -18 4 -41 15 -23 12 -47 19 -54 16 -8 -3 -15 -1 -17 4 -8 21 -214 32 -298 15 -57 -11 -161 -56 -215 -92 -60 -40 -162 -139 -170 -165 -4 -10 -9 -18 -13 -18 -4 0 -20 -26 -37 -58 -16 -31 -34 -60 -40 -64 -5 -4 -7 -8 -3 -8 9 0 -93 -205 -126 -253 -14 -21 -26 -40 -26 -42 0 -3 -6 -13 -14 -22 -8 -10 -41 -52 -74 -93 -89 -112 -253 -265 -367 -344 -33 -22 -66 -47 -73 -53 -7 -7 -17 -13 -22 -13 -5 0 -15 -6 -22 -13 -7 -6 -38 -25 -68 -41 -30 -16 -68 -37 -85 -46 -78 -42 -310 -129 -385 -144 -14 -3 -44 -10 -68 -16 -76 -18 -204 -33 -302 -33 -73 -1 -239 11 -250 18 -3 2 -23 6 -45 10 -22 4 -44 8 -50 9 -87 23 -105 30 -105 38 0 5 -5 6 -10 3 -10 -6 -186 76 -245 115 -16 11 -36 23 -42 26 -18 8 -16 34 1 34 8 0 16 3 18 8 4 9 107 72 119 72 5 0 9 3 9 8 0 4 17 16 38 27 20 11 42 24 47 28 11 9 158 106 184 122 9 6 18 12 21 15 3 3 46 34 95 69 50 36 104 76 121 90 17 14 48 40 69 56 21 17 44 36 51 43 7 6 15 12 18 12 3 0 14 8 24 18 10 9 51 46 92 82 95 84 269 258 345 345 33 37 67 75 75 84 12 13 88 110 123 156 4 5 21 28 38 50 17 22 47 66 66 98 20 31 40 57 44 57 5 0 9 5 9 10 0 6 27 56 61 111 54 90 182 335 178 341 -1 2 7 21 18 43 20 40 69 182 76 220 2 11 7 27 10 35 4 8 8 29 11 45 2 17 5 30 6 30 1 0 3 9 4 20 2 11 6 40 11 65 9 53 13 86 21 195 10 137 10 150 1 163 -6 7 -6 12 0 12 5 0 8 24 6 53 -5 101 -13 218 -17 245 -2 15 -8 47 -11 72 -4 25 -9 54 -11 65 -2 11 -7 34 -10 50 -2 17 -10 48 -16 70 -6 22 -11 47 -12 55 -2 8 -5 22 -8 30 -3 8 -18 53 -33 100 -32 99 -41 120 -106 255 -142 296 -369 534 -638 669 -77 39 -221 97 -221 90 0 -3 -8 0 -18 5 -18 9 -51 18 -97 26 -11 2 -20 4 -20 5 0 10 -214 31 -325 32 -120 2 -355 -13 -355 -22 0 -1 -15 -3 -34 -6 -19 -2 -44 -6 -55 -9 -45 -10 -111 -26 -121 -29 -5 -2 -14 -5 -20 -6 -5 -1 -32 -11 -60 -22 -27 -11 -72 -27 -100 -36 -27 -9 -53 -20 -56 -25 -3 -5 -10 -9 -15 -9 -5 -1 -25 -8 -44 -16 -19 -9 -37 -16 -40 -17 -20 -6 -49 -21 -69 -37 -13 -10 -27 -16 -31 -13 -4 3 -13 -2 -20 -10 -7 -8 -16 -15 -21 -15 -13 0 -162 -91 -171 -104 -4 -6 -8 -7 -8 -3 0 4 -6 3 -12 -3 -34 -29 -139 -100 -148 -100 -5 0 -10 -4 -10 -8 0 -5 -15 -20 -34 -33 -120 -87 -332 -289 -451 -430 -89 -106 -235 -304 -235 -319 0 -6 -4 -10 -9 -10 -5 0 -12 -8 -15 -17 -7 -21 -27 -55 -43 -74 -13 -17 -177 -332 -176 -339 1 -3 -7 -24 -18 -47 -10 -23 -19 -49 -19 -57 0 -8 -4 -16 -8 -18 -20 -8 -127 -372 -157 -533 -9 -49 -21 -98 -26 -107 -5 -10 -5 -19 1 -23 6 -4 6 -15 0 -30 -5 -14 -12 -53 -16 -87 -3 -35 -8 -74 -10 -88 -3 -22 -13 -179 -18 -300 -1 -25 1 -55 5 -67 5 -12 5 -24 1 -27 -5 -3 -7 -22 -6 -43 3 -74 15 -258 18 -288 4 -34 16 -139 21 -170 1 -11 6 -47 10 -80 3 -33 10 -75 15 -92 7 -27 6 -33 -8 -34 -9 0 -26 -3 -37 -5 -11 -2 -45 -7 -75 -10 -283 -32 -499 51 -632 243 -48 68 -78 122 -78 138 0 7 -3 15 -8 17 -9 4 -58 146 -73 213 -18 83 -19 89 -24 120 -2 17 -6 40 -9 53 -5 20 -13 102 -22 217 -5 65 -5 404 0 490 3 44 8 127 12 185 4 58 7 117 8 133 0 15 3 27 6 27 3 0 6 19 7 43 1 52 15 186 27 275 3 23 9 61 12 85 3 23 7 53 9 67 2 14 6 43 9 65 3 22 8 60 12 85 3 25 8 56 10 70 3 14 7 39 9 55 2 17 6 39 8 50 7 31 16 86 22 130 9 56 14 86 21 115 3 14 7 41 9 60 2 19 17 104 34 189 17 85 28 157 26 162 -3 4 -1 10 4 13 7 5 23 79 26 121 0 6 4 16 8 23 5 6 6 12 3 12 -2 0 2 28 10 62 8 35 17 78 20 98 3 19 9 51 14 70 5 19 11 46 14 60 7 38 75 357 91 425 7 33 16 74 19 90 6 29 10 46 21 98 7 32 34 167 40 202 15 87 18 102 20 125 2 14 4 26 5 28 4 4 6 15 14 87 5 39 10 86 13 105 11 81 9 346 -3 422 -7 45 -11 85 -8 90 3 4 0 8 -5 8 -6 0 -11 8 -11 18 0 52 -110 312 -131 312 -5 0 -9 9 -9 20 0 11 -4 20 -10 20 -5 0 -16 12 -24 28 -21 41 -169 187 -249 246 -84 61 -193 116 -262 133 -220 52 -414 29 -655 -78 -41 -18 -77 -36 -80 -39 -3 -4 -26 -17 -52 -29 -27 -13 -48 -27 -48 -32 0 -5 -5 -9 -12 -9 -16 0 -71 -37 -197 -134 -112 -86 -144 -114 -318 -281 -139 -133 -443 -442 -443 -450 0 -2 -21 -26 -47 -53 -27 -27 -75 -81 -108 -118 -33 -38 -78 -88 -100 -110 -22 -23 -49 -53 -59 -66 -49 -58 -150 -174 -160 -183 -6 -5 -29 -32 -51 -60 -41 -52 -87 -105 -117 -137 -10 -10 -18 -22 -18 -28 0 -5 -4 -10 -8 -10 -5 0 -42 -42 -83 -92 -41 -51 -79 -97 -85 -103 -5 -5 -28 -32 -49 -60 -22 -27 -44 -55 -50 -61 -5 -6 -23 -28 -40 -49 -16 -21 -35 -43 -40 -49 -6 -6 -28 -33 -50 -61 -22 -27 -43 -51 -47 -53 -5 -2 -8 -8 -8 -13 0 -5 -8 -17 -17 -28 -10 -10 -28 -31 -40 -47 -13 -16 -44 -56 -70 -89 -27 -34 -61 -78 -78 -99 -16 -21 -34 -44 -40 -50 -5 -6 -22 -27 -36 -46 -15 -19 -36 -46 -48 -59 -11 -13 -21 -27 -21 -30 0 -3 -14 -20 -30 -38 -17 -18 -30 -36 -30 -40 0 -4 -16 -26 -35 -48 -19 -22 -38 -45 -43 -50 -57 -77 -98 -131 -102 -135 -3 -3 -45 -58 -93 -122 -48 -65 -90 -118 -93 -118 -3 0 -2 5 1 11 4 5 9 21 11 35 2 13 6 34 8 47 14 77 21 116 31 180 3 17 7 43 10 57 3 14 7 41 10 60 3 19 8 42 10 50 2 8 6 35 10 60 6 49 13 85 15 85 1 0 3 11 4 25 2 14 6 41 10 60 13 69 16 85 21 118 6 40 13 79 20 112 2 13 7 40 10 60 3 20 8 47 11 60 7 36 18 101 28 168 5 34 15 88 22 125 3 16 7 38 9 50 6 46 16 114 27 172 6 33 12 70 13 82 2 12 6 34 9 50 5 24 10 59 21 143 5 35 17 117 21 140 5 25 11 67 18 130 2 19 7 51 10 70 6 39 15 97 21 149 2 19 6 48 9 65 5 29 9 67 21 186 3 25 8 72 11 105 4 33 7 81 8 107 0 27 3 48 6 48 11 0 16 521 6 620 -22 225 -44 301 -119 414 -61 92 -106 141 -177 194 -19 15 -37 29 -40 32 -5 5 -30 20 -84 49 -138 74 -356 99 -536 59z m7760 -4592 c41 -10 116 -48 145 -73 34 -30 85 -100 78 -107 -3 -3 -2 -6 4 -6 10 0 21 -23 29 -65 2 -11 7 -27 11 -35 16 -40 22 -196 10 -280 -10 -66 -50 -206 -82 -280 -48 -114 -138 -274 -193 -345 -4 -5 -19 -26 -32 -45 -13 -19 -29 -40 -35 -46 -6 -6 -27 -30 -46 -54 -37 -45 -147 -157 -225 -230 -27 -24 -105 -86 -174 -137 -69 -51 -130 -98 -137 -103 -7 -6 -16 -10 -21 -10 -4 0 -24 -12 -43 -26 -19 -14 -50 -34 -69 -43 -19 -10 -57 -30 -84 -45 -79 -44 -111 -60 -116 -61 -5 -1 -100 -45 -112 -52 -4 -2 -6 83 -3 189 4 189 8 250 20 319 4 19 8 50 10 69 18 166 119 521 199 694 61 133 89 186 97 186 4 0 9 10 13 23 6 25 98 165 156 238 60 77 220 229 239 229 5 0 11 3 13 8 7 16 129 73 183 85 62 14 111 15 165 3z" transform="translate(0.000000,1728.000000) scale(0.100000,-0.100000)" fill="#000" stroke="none"/></svg>